Coordinates
version=1
nRows=30
nColumns=30
inDegrees=yes

Units are S.I. units (second, meters, Newtons, ...)
Angles are in degrees.

endheader
time	floatyaw	floatroll	floatpitch	floatx	floaty	floatz	pro_sup_l	deviation_l	flexion_l	cmc_flexion_l	cmc_abduction_l	mp_flexion_l	ip_flexion_l	2mcp_flexion_l	2mcp_abduction_l	2pm_flexion_l	2md_flexion_l	3mcp_flexion_l	3mcp_abduction_l	3pm_flexion_l	3md_flexion_l	4mcp_flexion_l	4mcp_abduction_l	4pm_flexion_l	4md_flexion_l	5mcp_flexion_l	5mcp_abduction_l	5pm_flexion_l	5md_flexion_l
-0.495000	-4.367428	-0.612882	99.545687	-0.087284	-0.181665	-0.006451	89.998583	1.737416	1.583136	16.878749	8.399204	-21.655333	-34.746035	35.468431	7.441922	48.627686	33.524156	22.488396	4.533438	49.212582	32.827679	12.205600	-4.842981	62.870026	42.101342	8.728548	-7.665434	61.258759	40.729451
-0.485000	-4.367428	-0.612882	99.545687	-0.085329	-0.180630	-0.005130	90.254894	1.849031	1.846836	16.988360	8.606773	-21.621716	-34.740708	35.249127	7.453558	48.656381	33.554466	22.506922	4.523964	49.177892	32.847615	12.299593	-4.858133	62.900726	42.160558	8.965655	-7.618976	61.276648	40.711784
-0.475000	-4.367428	-0.612882	99.545687	-0.083288	-0.179639	-0.003751	90.546312	2.021824	2.100007	17.075613	8.801638	-21.604107	-34.746696	35.058762	7.476175	48.743396	33.618177	22.536507	4.523877	49.202165	32.923819	12.440612	-4.868404	62.988832	42.273986	9.300170	-7.584286	61.286853	40.690202
-0.465000	-4.367428	-0.612882	99.545687	-0.081184	-0.178702	-0.002331	90.850275	2.252829	2.312382	17.132403	8.995767	-21.594955	-34.756575	34.920457	7.502162	48.896446	33.714974	22.601318	4.532596	49.314782	33.064964	12.666197	-4.872453	63.134649	42.432419	9.749151	-7.562502	61.301814	40.668476
-0.455000	-4.367428	-0.612882	99.545687	-0.079044	-0.177822	-0.000889	91.142210	2.523603	2.462566	17.153364	9.201749	-21.586153	-34.762961	34.856838	7.524083	49.104557	33.832462	22.723110	4.547081	49.529440	33.264633	13.002024	-4.871217	63.332485	42.616387	10.311956	-7.548964	61.339116	40.650350
-0.445000	-4.367428	-0.612882	99.545687	-0.076895	-0.176990	0.000562	91.403440	2.806979	2.544759	17.137789	9.428829	-21.572693	-34.762280	34.882250	7.536976	49.340921	33.950803	22.909448	4.563304	49.834964	33.503137	13.447736	-4.868074	63.569918	42.803489	10.970745	-7.535624	61.410165	40.635551
-0.435000	-4.367428	-0.612882	99.545687	-0.074760	-0.176190	0.002012	91.628587	3.074047	2.569359	17.090962	9.678294	-21.554109	-34.755773	34.996883	7.539383	49.573482	34.051841	23.150310	4.577766	50.194982	33.754176	13.976489	-4.867845	63.826696	42.975782	11.697510	-7.513872	61.512535	40.618532
-0.425000	-4.367428	-0.612882	99.545687	-0.072651	-0.175405	0.003460	91.830060	3.299337	2.558346	17.022755	9.940152	-21.533317	-34.747347	35.187854	7.532060	49.776237	34.126447	23.425849	4.588689	50.558886	33.992961	14.549137	-4.874682	64.077338	43.123632	12.463775	-7.477095	61.632501	40.591509
-0.415000	-4.367428	-0.612882	99.545687	-0.070565	-0.174617	0.004914	92.037035	3.463788	2.539573	16.943687	10.193943	-21.514413	-34.740700	35.436668	7.515091	49.935034	34.175532	23.720216	4.596254	50.880371	34.202215	15.133604	-4.889729	64.299098	43.245096	13.247835	-7.422769	61.756019	40.549671
-0.405000	-4.367428	-0.612882	99.545687	-0.068476	-0.173808	0.006392	92.287892	3.556795	2.543345	16.861230	10.415233	-21.501093	-34.738206	35.726093	7.486235	50.047883	34.206044	24.031876	4.601337	51.135433	34.374737	15.717052	-4.909908	64.482030	43.343067	14.036304	-7.353749	61.879264	40.494681
-0.395000	-4.367428	-0.612882	99.545687	-0.066343	-0.172958	0.007916	92.617999	3.578886	2.601182	16.779294	10.585856	-21.496238	-34.741946	36.039952	7.442845	50.124104	34.227053	24.373046	4.603292	51.331868	34.513818	16.304778	-4.928683	64.635376	43.423587	14.820919	-7.278019	62.011213	40.434569
-0.385000	-4.367428	-0.612882	99.545687	-0.064117	-0.172045	0.009501	93.047234	3.544640	2.743814	16.700946	10.702785	-21.502235	-34.755310	36.357094	7.386388	50.184839	34.249115	24.758736	4.598715	51.506430	34.633068	16.909919	-4.938652	64.786186	43.496671	15.595517	-7.206367	62.167941	40.380891
-0.375000	-4.367428	-0.612882	99.545687	-0.061753	-0.171048	0.011158	93.571751	3.483028	2.995763	16.631339	10.780395	-21.521332	-34.783462	36.647699	7.325683	50.262769	34.285614	25.194151	4.582705	51.711227	34.755183	17.544146	-4.934875	64.970070	43.577704	16.358612	-7.148205	62.363823	40.344743
-0.365000	-4.367428	-0.612882	99.545687	-0.059211	-0.169946	0.012888	94.162478	3.432578	3.366874	16.577389	10.844113	-21.555493	-34.832117	36.878776	7.275061	50.396962	34.352478	25.671370	4.552114	51.995174	34.907666	18.217419	-4.917421	65.217764	43.686129	17.122209	-7.106835	62.605818	40.332982
-0.355000	-4.367428	-0.612882	99.545687	-0.056458	-0.168717	0.014699	94.770195	3.432083	3.844282	16.543514	10.918284	-21.605517	-34.905265	37.028020	7.246753	50.621545	34.464188	26.179684	4.508394	52.387454	35.114455	18.946350	-4.891758	65.542942	43.839789	17.920406	-7.076095	62.894183	40.346085
-0.345000	-4.367428	-0.612882	99.545687	-0.053466	-0.167340	0.016609	95.335116	3.510775	4.389372	16.526487	11.014838	-21.669358	-35.002707	37.098199	7.241029	50.952129	34.627275	26.722985	4.458021	52.888092	35.385488	19.762480	-4.866417	65.936209	44.046507	18.808705	-7.040598	63.227499	40.378438
-0.335000	-4.367428	-0.612882	99.545687	-0.050208	-0.165789	0.018650	95.798307	3.682286	4.942337	16.513843	11.129201	-21.740079	-35.117939	37.122938	7.240242	51.376992	34.834927	27.330433	4.410401	53.467763	35.709080	20.710183	-4.848694	66.367780	44.297197	19.849793	-6.981071	63.605606	40.420204
-0.325000	-4.367428	-0.612882	99.545687	-0.046662	-0.164041	0.020861	96.113074	3.944570	5.433530	16.488199	11.245709	-21.804821	-35.237064	37.159235	7.211717	51.858035	35.065990	28.049415	4.374921	54.076520	36.052206	21.830499	-4.840601	66.797965	44.565216	21.090279	-6.883528	64.026158	40.459312
-0.315000	-4.367428	-0.612882	99.545687	-0.042812	-0.162083	0.023271	96.255330	4.285188	5.797946	16.435916	11.349643	-21.846807	-35.340156	37.268382	7.119908	52.341235	35.289400	28.921458	4.358755	54.658629	36.370244	23.137954	-4.837893	67.190897	44.813929	22.538884	-6.747317	64.477799	40.483198
-0.305000	-4.367428	-0.612882	99.545687	-0.038651	-0.159920	0.025890	96.231542	4.689256	5.988346	16.355705	11.440691	-21.851209	-35.406402	37.491639	6.942945	52.772447	35.473060	29.954032	4.365658	55.168080	36.622401	24.604069	-4.833460	67.524959	45.009871	24.156797	-6.586223	64.937270	40.480804
-0.295000	-4.367428	-0.612882	99.545687	-0.034179	-0.157571	0.028702	96.081015	5.146030	5.983509	16.262651	11.543196	-21.813075	-35.422602	37.830058	6.685020	53.112953	35.594459	31.105567	4.395151	55.578541	36.785549	26.158634	-4.822894	67.795235	45.135473	25.866050	-6.421059	65.374310	40.444554
-0.285000	-4.367428	-0.612882	99.545687	-0.029406	-0.155069	0.031672	95.868660	5.650201	5.790409	16.185324	11.709241	-21.743307	-35.392115	38.239494	6.376544	53.348532	35.648398	32.294568	4.442078	55.884459	36.859936	27.709503	-4.807682	68.008653	45.195272	27.574042	-6.268586	65.761250	40.371199
-0.275000	-4.367428	-0.612882	99.545687	-0.024347	-0.152455	0.034754	95.667737	6.196692	5.441613	16.156730	12.010490	-21.668509	-35.339464	38.647637	6.060360	53.487427	35.647046	33.430019	4.497495	56.095030	36.864665	29.171418	-4.793257	68.176617	45.212743	29.203937	-6.134309	66.081274	40.261322
-0.265000	-4.367428	-0.612882	99.545687	-0.019026	-0.149779	0.037908	95.538448	6.772549	4.990134	16.202443	12.517290	-21.623033	-35.306138	38.987275	5.771822	53.548568	35.611702	34.446920	4.551425	56.225988	36.826296	30.490363	-4.783742	68.309875	45.219625	30.715915	-6.013444	66.332235	40.119133
-0.255000	-4.367428	-0.612882	99.545687	-0.013471	-0.147096	0.041104	95.512233	7.352665	4.502761	16.330153	13.271280	-21.635961	-35.337235	39.227177	5.525537	53.548205	35.561448	35.326851	4.596499	56.293698	36.767416	31.653672	-4.778135	68.417737	45.243629	32.108786	-5.898315	66.527731	39.954440
-0.245000	-4.367428	-0.612882	99.545687	-0.007719	-0.144473	0.044323	95.588703	7.903603	4.050856	16.523976	14.265402	-21.719364	-35.464540	39.382135	5.317097	53.494084	35.506006	36.093416	4.630518	56.313719	36.701645	32.684357	-4.771125	68.511734	45.301659	33.405077	-5.786684	66.698875	39.786153
-0.235000	-4.367428	-0.612882	99.545687	-0.001814	-0.141990	0.047547	95.744337	8.393111	3.697780	16.745121	15.443860	-21.863678	-35.694683	39.499036	5.137099	53.389760	35.446742	36.789652	4.656534	56.304348	36.637948	33.626029	-4.757528	68.613043	45.402594	34.634819	-5.685838	66.897470	39.643576
-0.225000	-4.367428	-0.612882	99.545687	0.004177	-0.139744	0.050755	95.946381	8.798543	3.484694	16.938582	16.723235	-22.041704	-36.008336	39.633254	4.985853	53.243620	35.383942	37.455185	4.680439	56.294775	36.591846	34.527897	-4.736543	68.761928	45.557420	35.832265	-5.610014	67.197011	39.561303
-0.215000	-4.367428	-0.612882	99.545687	0.010165	-0.137838	0.053919	96.165859	9.109667	3.419059	17.044484	18.023163	-22.218713	-36.370521	39.833600	4.877420	53.074884	35.325055	38.117362	4.707325	56.335244	36.596361	35.436789	-4.712712	69.025024	45.789063	37.046488	-5.572072	67.686342	39.567278
-0.205000	-4.367428	-0.612882	99.545687	0.016037	-0.136367	0.057006	96.387803	9.326941	3.470495	17.012494	19.289500	-22.365115	-36.747345	40.142485	4.830598	52.913715	35.289197	38.797260	4.738450	56.502613	36.703939	36.397229	-4.693499	69.493985	46.134061	38.353496	-5.573671	68.453784	39.668871
